#N canvas 0 0 1904 976 12;
#X obj 32 19 tgl 15 0 empty empty empty 17 7 0 10 #fcfcfc #000000 #000000
1 1;
#X msg 32 44 \; pd dsp \$1;
#X obj 757 296 metro 2300;
#X obj 578 292 metro 900;
#X msg 360 80 0;
#X msg 399 80 1;
#X msg 438 80 2;
#X msg 480 80 3;
#X obj 757 187 bng 15 250 50 0 empty empty empty 17 7 0 10 #fcfcfc
#000000 #000000;
#X obj 578 184 bng 15 250 50 0 empty empty empty 17 7 0 10 #fcfcfc
#000000 #000000;
#X obj 389 183 bng 15 250 50 0 empty empty empty 17 7 0 10 #fcfcfc
#000000 #000000;
#X obj 202 183 bng 15 250 50 0 empty empty empty 17 7 0 10 #fcfcfc
#000000 #000000;
#X msg 788 202 stop;
#X msg 600 200 stop;
#X msg 423 198 stop;
#X msg 242 198 stop;
#X obj 1260 230 dac~;
#X obj 389 292 metro 200;
#N canvas 0 0 3240 1996 fade 0;
#X obj 206 297 *~;
#X obj 206 365 dac~;
#X obj 250 278 vline~;
#X msg 270 223 0 1000;
#X msg 250 250 0.5 1000 100;
#X obj 250 126 inlet;
#X obj 312 125 inlet;
#X obj 189 130 inlet~;
#X connect 0 0 1 0;
#X connect 0 0 1 1;
#X connect 2 0 0 1;
#X connect 3 0 2 0;
#X connect 4 0 2 0;
#X connect 5 0 4 0;
#X connect 6 0 3 0;
#X connect 7 0 0 0;
#X restore 757 545 pd fade;
#N canvas 0 0 3240 1996 fade 0;
#X obj 206 297 *~;
#X obj 206 365 dac~;
#X obj 250 278 vline~;
#X msg 270 223 0 1000;
#X msg 250 250 0.5 1000 100;
#X obj 250 126 inlet;
#X obj 312 125 inlet;
#X obj 189 130 inlet~;
#X connect 0 0 1 0;
#X connect 0 0 1 1;
#X connect 2 0 0 1;
#X connect 3 0 2 0;
#X connect 4 0 2 0;
#X connect 5 0 4 0;
#X connect 6 0 3 0;
#X connect 7 0 0 0;
#X restore 578 544 pd fade;
#N canvas 0 0 3240 1996 fade 0;
#X obj 206 297 *~;
#X obj 206 365 dac~;
#X obj 250 278 vline~;
#X msg 270 223 0 1000;
#X msg 250 250 0.5 1000 100;
#X obj 250 126 inlet;
#X obj 312 125 inlet;
#X obj 189 130 inlet~;
#X connect 0 0 1 0;
#X connect 0 0 1 1;
#X connect 2 0 0 1;
#X connect 3 0 2 0;
#X connect 4 0 2 0;
#X connect 5 0 4 0;
#X connect 6 0 3 0;
#X connect 7 0 0 0;
#X restore 389 544 pd fade;
#N canvas -32000 -32000 144 0 fade 1;
#X obj 206 297 *~;
#X obj 206 365 dac~;
#X obj 250 278 vline~;
#X msg 270 223 0 1000;
#X msg 250 250 0.5 1000 100;
#X obj 250 126 inlet;
#X obj 312 125 inlet;
#X obj 189 130 inlet~;
#X connect 0 0 1 0;
#X connect 0 0 1 1;
#X connect 2 0 0 1;
#X connect 3 0 2 0;
#X connect 4 0 2 0;
#X connect 5 0 4 0;
#X connect 6 0 3 0;
#X connect 7 0 0 0;
#X restore 203 549 pd fade;
#X obj 202 293 metro 2500;
#N canvas -32000 -32000 144 0 fruit_sfx 1;
#X floatatom 174 366 5 0 0 0 - - -, f 5;
#X obj 174 450 *~;
#X obj 243 431 vline~;
#X obj 116 260 random 3;
#X obj 116 308 * 50;
#X obj 116 347 + 200;
#X obj 116 219 metro 50;
#X obj 116 152 bng 15 250 50 0 empty empty empty 17 7 0 10 #fcfcfc
#000000 #000000;
#X obj 174 404 osc~;
#X obj 174 490 *~ 1;
#X obj 116 89 inlet;
#X obj 174 538 outlet~;
#X msg 243 167 0.5 1 \, 1 5 \, 0.5 60 5 \, 0 500 65;
#X connect 0 0 8 0;
#X connect 1 0 9 0;
#X connect 2 0 1 1;
#X connect 3 0 4 0;
#X connect 4 0 5 0;
#X connect 5 0 0 0;
#X connect 6 0 3 0;
#X connect 7 0 6 0;
#X connect 7 0 12 0;
#X connect 8 0 1 0;
#X connect 9 0 11 0;
#X connect 10 0 7 0;
#X connect 12 0 2 0;
#X restore 1260 180 pd fruit_sfx;
#N canvas -32000 -32000 144 0 discord_mod 1;
#X obj 263 68 inlet;
#X floatatom 263 525 5 0 0 0 - - -, f 5;
#X obj 189 912 *~;
#X obj 263 115 bng 15 250 50 0 empty empty empty 17 7 0 10 #fcfcfc
#000000 #000000;
#X obj 305 162 bng 15 250 50 0 empty empty empty 17 7 0 10 #fcfcfc
#000000 #000000;
#X msg 305 189 stop;
#X obj 263 435 f;
#X floatatom 281 401 5 0 0 0 - - -, f 5;
#X obj 317 438 f;
#X floatatom 335 404 5 0 0 0 - - -, f 5;
#X obj 383 438 f;
#X floatatom 401 404 5 0 0 0 - - -, f 5;
#X obj 438 437 f;
#X floatatom 456 403 5 0 0 0 - - -, f 5;
#X obj 641 282 loadbang;
#X obj 263 734 mtof;
#X obj 344 734 mtof;
#X floatatom 344 525 5 0 0 0 - - -, f 5;
#X obj 432 893 vline~;
#X obj 189 734 mtof;
#X obj 189 870 -~;
#X obj 189 831 +~;
#X obj 189 952 outlet~;
#X obj 305 130 delay 2000 1 msec;
#X msg 432 820 0.075 350 \, 0 500 500;
#X obj 263 225 metro 900;
#X msg 281 368 32;
#X msg 401 368 42;
#X msg 456 367 45;
#X obj 189 789 phasor~;
#X obj 263 789 osc~;
#X obj 263 692 +;
#X obj 281 663 * 12;
#X obj 281 606 random 3;
#X obj 438 506 + 24;
#X obj 189 543 + 29;
#X obj 281 635 + 2;
#X msg 335 368 38;
#X msg 485 791 0.075 250 \, 0 500 250;
#X obj 344 788 osc~;
#X obj 501 438 f;
#X floatatom 519 404 5 0 0 0 - - -, f 5;
#X obj 564 437 f;
#X floatatom 582 403 5 0 0 0 - - -, f 5;
#X obj 623 437 f;
#X floatatom 641 403 5 0 0 0 - - -, f 5;
#X msg 519 368 50;
#X msg 582 367 51;
#X msg 641 367 53;
#X obj 263 571 metro 70;
#X obj 263 272 random 7;
#X obj 263 318 select 0 1 2 3 4 5 6;
#X connect 0 0 3 0;
#X connect 1 0 31 0;
#X connect 1 0 35 0;
#X connect 2 0 22 0;
#X connect 3 0 23 0;
#X connect 3 0 25 0;
#X connect 4 0 5 0;
#X connect 4 0 38 0;
#X connect 5 0 25 0;
#X connect 6 0 34 0;
#X connect 6 0 1 0;
#X connect 7 0 6 1;
#X connect 8 0 34 0;
#X connect 8 0 1 0;
#X connect 9 0 8 1;
#X connect 10 0 34 0;
#X connect 10 0 1 0;
#X connect 11 0 10 1;
#X connect 12 0 34 0;
#X connect 12 0 1 0;
#X connect 13 0 12 1;
#X connect 14 0 26 0;
#X connect 14 0 37 0;
#X connect 14 0 27 0;
#X connect 14 0 28 0;
#X connect 14 0 49 0;
#X connect 14 0 46 0;
#X connect 14 0 47 0;
#X connect 14 0 48 0;
#X connect 15 0 30 0;
#X connect 16 0 39 0;
#X connect 17 0 16 0;
#X connect 18 0 2 1;
#X connect 19 0 29 0;
#X connect 20 0 2 0;
#X connect 21 0 20 0;
#X connect 23 0 4 0;
#X connect 24 0 18 0;
#X connect 25 0 50 0;
#X connect 25 0 24 0;
#X connect 26 0 7 0;
#X connect 27 0 11 0;
#X connect 28 0 13 0;
#X connect 29 0 21 0;
#X connect 30 0 21 1;
#X connect 31 0 15 0;
#X connect 32 0 31 1;
#X connect 33 0 36 0;
#X connect 34 0 17 0;
#X connect 35 0 19 0;
#X connect 36 0 32 0;
#X connect 37 0 9 0;
#X connect 38 0 18 0;
#X connect 39 0 20 1;
#X connect 40 0 34 0;
#X connect 40 0 1 0;
#X connect 41 0 40 1;
#X connect 42 0 34 0;
#X connect 42 0 1 0;
#X connect 43 0 42 1;
#X connect 44 0 34 0;
#X connect 44 0 1 0;
#X connect 45 0 44 1;
#X connect 46 0 41 0;
#X connect 47 0 43 0;
#X connect 48 0 45 0;
#X connect 49 0 31 0;
#X connect 49 0 33 0;
#X connect 50 0 51 0;
#X connect 51 0 6 0;
#X connect 51 1 8 0;
#X connect 51 2 10 0;
#X connect 51 3 12 0;
#X connect 51 4 40 0;
#X connect 51 5 42 0;
#X connect 51 6 44 0;
#X restore 203 407 pd discord_mod;
#N canvas -32000 -32000 144 0 finn_human 1;
#X obj 263 68 inlet;
#X floatatom 263 509 5 0 0 0 - - -, f 5;
#X obj 172 712 *~;
#X obj 263 115 bng 15 250 50 0 empty empty empty 17 7 0 10 #fcfcfc
#000000 #000000;
#X obj 305 162 bng 15 250 50 0 empty empty empty 17 7 0 10 #fcfcfc
#000000 #000000;
#X msg 305 189 stop;
#X obj 263 435 f;
#X floatatom 281 401 5 0 0 0 - - -, f 5;
#X obj 317 438 f;
#X floatatom 335 404 5 0 0 0 - - -, f 5;
#X obj 383 438 f;
#X floatatom 401 404 5 0 0 0 - - -, f 5;
#X obj 438 437 f;
#X floatatom 456 403 5 0 0 0 - - -, f 5;
#X obj 456 326 loadbang;
#X obj 263 563 mtof;
#X obj 344 563 mtof;
#X floatatom 344 509 5 0 0 0 - - -, f 5;
#X obj 418 693 vline~;
#X obj 172 563 mtof;
#X obj 172 670 -~;
#X obj 172 631 +~;
#X obj 172 752 outlet~;
#X obj 263 272 random 4;
#X obj 263 318 select 0 1 2 3;
#X obj 263 598 phasor~;
#X obj 190 291 * 12;
#X obj 344 596 phasor~;
#X obj 172 527 +;
#X msg 281 365 48;
#X msg 335 368 50;
#X msg 401 368 52;
#X msg 456 367 53;
#X obj 190 244 random 3;
#X obj 263 225 metro 1000;
#X obj 305 130 delay 0 1 msec;
#X obj 172 597 osc~;
#X obj 438 490 - 12;
#X msg 418 655 0.1 50 \, 0 1000 100;
#X connect 0 0 3 0;
#X connect 1 0 15 0;
#X connect 1 0 28 0;
#X connect 2 0 22 0;
#X connect 3 0 34 0;
#X connect 3 0 35 0;
#X connect 4 0 5 0;
#X connect 5 0 34 0;
#X connect 6 0 1 0;
#X connect 6 0 37 0;
#X connect 7 0 6 1;
#X connect 8 0 1 0;
#X connect 8 0 37 0;
#X connect 9 0 8 1;
#X connect 10 0 1 0;
#X connect 10 0 37 0;
#X connect 11 0 10 1;
#X connect 12 0 1 0;
#X connect 12 0 37 0;
#X connect 13 0 12 1;
#X connect 14 0 32 0;
#X connect 14 0 31 0;
#X connect 14 0 30 0;
#X connect 14 0 29 0;
#X connect 15 0 25 0;
#X connect 16 0 27 0;
#X connect 17 0 16 0;
#X connect 18 0 2 1;
#X connect 19 0 36 0;
#X connect 20 0 2 0;
#X connect 21 0 20 0;
#X connect 23 0 24 0;
#X connect 24 0 6 0;
#X connect 24 1 8 0;
#X connect 24 2 10 0;
#X connect 24 3 12 0;
#X connect 25 0 21 1;
#X connect 26 0 28 1;
#X connect 27 0 20 1;
#X connect 28 0 19 0;
#X connect 29 0 7 0;
#X connect 30 0 9 0;
#X connect 31 0 11 0;
#X connect 32 0 13 0;
#X connect 33 0 26 0;
#X connect 34 0 23 0;
#X connect 34 0 33 0;
#X connect 34 0 38 0;
#X connect 35 0 4 0;
#X connect 36 0 21 0;
#X connect 37 0 17 0;
#X connect 38 0 18 0;
#X restore 389 407 pd finn_human;
#N canvas -32000 -32000 144 0 ninja_frog 1;
#X obj 263 68 inlet;
#X floatatom 263 551 5 0 0 0 - - -, f 5;
#X obj 189 774 *~;
#X obj 263 115 bng 15 250 50 0 empty empty empty 17 7 0 10 #fcfcfc
#000000 #000000;
#X obj 305 162 bng 15 250 50 0 empty empty empty 17 7 0 10 #fcfcfc
#000000 #000000;
#X msg 305 189 stop;
#X obj 263 435 f;
#X floatatom 281 401 5 0 0 0 - - -, f 5;
#X obj 317 438 f;
#X floatatom 335 404 5 0 0 0 - - -, f 5;
#X obj 383 438 f;
#X floatatom 401 404 5 0 0 0 - - -, f 5;
#X obj 438 437 f;
#X floatatom 456 403 5 0 0 0 - - -, f 5;
#X obj 456 326 loadbang;
#X obj 263 596 mtof;
#X obj 344 596 mtof;
#X floatatom 344 551 5 0 0 0 - - -, f 5;
#X obj 462 755 vline~;
#X obj 189 596 mtof;
#X obj 189 732 -~;
#X obj 189 693 +~;
#X obj 189 814 outlet~;
#X obj 263 272 random 4;
#X obj 263 318 select 0 1 2 3;
#X msg 548 569 2;
#X obj 263 225 metro 100;
#X obj 305 130 delay 500 1 msec;
#X obj 462 568 random 2;
#X obj 462 597 select 0 1;
#X msg 456 367 60;
#X msg 281 365 53;
#X msg 335 368 55;
#X msg 401 368 56;
#X obj 438 532 - 12;
#X obj 189 569 + 29;
#X msg 529 633 0.1 2 \, 0 300 100;
#X msg 496 661 0.1 2 \, 0 300 100;
#X msg 462 687 0.1 0.5 \, 0 100 25;
#X obj 189 651 phasor~;
#X obj 344 650 osc~;
#X obj 263 652 phasor~;
#X connect 0 0 3 0;
#X connect 1 0 15 0;
#X connect 1 0 35 0;
#X connect 2 0 22 0;
#X connect 3 0 26 0;
#X connect 3 0 27 0;
#X connect 4 0 5 0;
#X connect 4 0 25 0;
#X connect 5 0 26 0;
#X connect 6 0 1 0;
#X connect 6 0 34 0;
#X connect 7 0 6 1;
#X connect 8 0 1 0;
#X connect 8 0 34 0;
#X connect 9 0 8 1;
#X connect 10 0 1 0;
#X connect 10 0 34 0;
#X connect 11 0 10 1;
#X connect 12 0 1 0;
#X connect 12 0 34 0;
#X connect 13 0 12 1;
#X connect 14 0 31 0;
#X connect 14 0 32 0;
#X connect 14 0 33 0;
#X connect 14 0 30 0;
#X connect 15 0 41 0;
#X connect 16 0 40 0;
#X connect 17 0 16 0;
#X connect 18 0 2 1;
#X connect 19 0 39 0;
#X connect 20 0 2 0;
#X connect 21 0 20 0;
#X connect 23 0 24 0;
#X connect 24 0 6 0;
#X connect 24 1 8 0;
#X connect 24 2 10 0;
#X connect 24 3 12 0;
#X connect 25 0 29 0;
#X connect 26 0 23 0;
#X connect 26 0 28 0;
#X connect 27 0 4 0;
#X connect 28 0 29 0;
#X connect 29 0 38 0;
#X connect 29 1 37 0;
#X connect 29 2 36 0;
#X connect 30 0 13 0;
#X connect 31 0 7 0;
#X connect 32 0 9 0;
#X connect 33 0 11 0;
#X connect 34 0 17 0;
#X connect 35 0 19 0;
#X connect 36 0 18 0;
#X connect 37 0 18 0;
#X connect 38 0 18 0;
#X connect 39 0 21 0;
#X connect 40 0 20 1;
#X connect 41 0 21 1;
#X restore 578 407 pd ninja_frog;
#N canvas -32000 -32000 144 0 masked_hunter 1;
#X obj 263 68 inlet;
#X floatatom 263 551 5 0 0 0 - - -, f 5;
#X obj 189 774 *~;
#X obj 263 115 bng 15 250 50 0 empty empty empty 17 7 0 10 #fcfcfc
#000000 #000000;
#X obj 305 162 bng 15 250 50 0 empty empty empty 17 7 0 10 #fcfcfc
#000000 #000000;
#X msg 305 189 stop;
#X obj 263 435 f;
#X floatatom 281 401 5 0 0 0 - - -, f 5;
#X obj 317 438 f;
#X floatatom 335 404 5 0 0 0 - - -, f 5;
#X obj 383 438 f;
#X floatatom 401 404 5 0 0 0 - - -, f 5;
#X obj 438 437 f;
#X floatatom 456 403 5 0 0 0 - - -, f 5;
#X msg 335 368 79;
#X obj 456 326 loadbang;
#X obj 263 596 mtof;
#X obj 344 596 mtof;
#X floatatom 344 551 5 0 0 0 - - -, f 5;
#X obj 462 755 vline~;
#X obj 462 597 select 0 1;
#X obj 263 225 metro 275;
#X obj 305 130 delay 1650 1 msec;
#X obj 189 596 mtof;
#X obj 189 732 -~;
#X obj 189 693 +~;
#X obj 189 814 outlet~;
#X obj 462 568 random 2;
#X msg 462 694 0.075 1 \, 0 300 50;
#X msg 496 662 0.075 1 \, 0 300 250;
#X obj 263 272 random 4;
#X obj 263 318 select 0 1 2 3;
#X msg 281 365 77;
#X msg 401 368 80;
#X msg 456 367 81;
#X obj 263 652 phasor~;
#X obj 189 651 phasor~;
#X msg 548 569 2;
#X msg 529 631 0.075 1 \, 0 750 250;
#X obj 438 532 - 12;
#X obj 189 569 - 17;
#X obj 344 650 osc~;
#X connect 0 0 3 0;
#X connect 1 0 16 0;
#X connect 1 0 40 0;
#X connect 2 0 26 0;
#X connect 3 0 22 0;
#X connect 3 0 21 0;
#X connect 4 0 5 0;
#X connect 4 0 37 0;
#X connect 5 0 21 0;
#X connect 6 0 1 0;
#X connect 6 0 39 0;
#X connect 7 0 6 1;
#X connect 8 0 1 0;
#X connect 8 0 39 0;
#X connect 9 0 8 1;
#X connect 10 0 1 0;
#X connect 10 0 39 0;
#X connect 11 0 10 1;
#X connect 12 0 1 0;
#X connect 12 0 39 0;
#X connect 13 0 12 1;
#X connect 14 0 9 0;
#X connect 15 0 32 0;
#X connect 15 0 14 0;
#X connect 15 0 33 0;
#X connect 15 0 34 0;
#X connect 16 0 35 0;
#X connect 17 0 41 0;
#X connect 18 0 17 0;
#X connect 19 0 2 1;
#X connect 20 0 28 0;
#X connect 20 1 29 0;
#X connect 20 2 38 0;
#X connect 21 0 27 0;
#X connect 21 0 30 0;
#X connect 22 0 4 0;
#X connect 23 0 36 0;
#X connect 24 0 2 0;
#X connect 25 0 24 0;
#X connect 27 0 20 0;
#X connect 28 0 19 0;
#X connect 29 0 19 0;
#X connect 30 0 31 0;
#X connect 31 0 6 0;
#X connect 31 1 8 0;
#X connect 31 2 10 0;
#X connect 31 3 12 0;
#X connect 32 0 7 0;
#X connect 33 0 11 0;
#X connect 34 0 13 0;
#X connect 35 0 25 1;
#X connect 36 0 25 0;
#X connect 37 0 20 0;
#X connect 38 0 19 0;
#X connect 39 0 18 0;
#X connect 40 0 23 0;
#X connect 41 0 24 1;
#X restore 757 411 pd masked_hunter;
#X text 25 95 osc reciever goes here >;
#X msg 520 80 stop;
#X floatatom 200 100 5 0 0 0 - - -, f 5;
#N canvas 535 41 450 325 jump_sfx 0;
#X obj 50 -260 bng 15 250 50 0 empty empty empty 17 7 0 10 #fcfcfc
#000000 #000000;
#X obj 50 74 *~;
#X obj 209 55 vline~;
#X floatatom 50 -87 5 0 0 0 - - -, f 5;
#X obj 50 -137 line, f 6;
#X obj 126 -217 bng 15 250 50 0 empty empty empty 17 7 0 10 #fcfcfc
#000000 #000000;
#X obj 122 -139 loadbang;
#X msg 122 -106 300;
#X obj 122 -69 + 50;
#X obj 50 -28 osc~;
#X obj 122 -29 osc~;
#X obj 50 24 *~;
#X text 46 -359 jump sound;
#N canvas 0 50 450 250 (subpatch) 0;
#X array array2 100 float 3 black black;
#A 0 0 0 0 0 0 0 0 0 0 0 0 0 0 0 0 0 0 0 0 0 0 0 0 0 0 0 0 0 0 0 0
0 0 0 0 0 0 0 0 0 0 0 0 0 0 0 0 0 0 0 0 0 0 0 0 0 0 0 0 0 0 0 0 0 0
0 0 0 0 0 0 0 0 0 0 0 0 0 0 0 0 0 0 0 0 0 0 0 0 0 0 0 0 0 0 0 0 0 0
0;
#X coords 0 1 100 -1 200 140 1;
#X restore 378 -165 graph;
#X obj 379 31 tgl 15 0 empty empty empty 17 7 0 10 #fcfcfc #000000
#000000 1 1;
#X obj 379 -5 loadbang;
#X obj 379 60 metro 100;
#X obj 379 93 tabwrite~ array2;
#X obj 126 -245 delay 125 1 msec;
#X msg 126 -189 300 125;
#X msg 50 -188 600 100;
#X msg 210 -20 0.75 1 \, 0 250 50;
#X obj 50 -320 inlet;
#X obj 50 120 outlet~;
#X connect 0 0 18 0;
#X connect 0 0 21 0;
#X connect 0 0 20 0;
#X connect 1 0 17 0;
#X connect 1 0 23 0;
#X connect 2 0 1 1;
#X connect 3 0 8 0;
#X connect 3 0 9 0;
#X connect 4 0 3 0;
#X connect 5 0 19 0;
#X connect 6 0 7 0;
#X connect 7 0 3 0;
#X connect 8 0 10 0;
#X connect 9 0 11 0;
#X connect 10 0 11 1;
#X connect 11 0 1 0;
#X connect 14 0 16 0;
#X connect 15 0 14 0;
#X connect 16 0 17 0;
#X connect 18 0 5 0;
#X connect 19 0 4 0;
#X connect 20 0 4 0;
#X connect 21 0 2 0;
#X connect 22 0 0 0;
#X restore 1420 180 pd jump_sfx;
#X obj 1420 230 dac~;
#X text 220 660 creation arguments are OSC address;
#X text 220 620 set message to change OSC address;
#X floatatom 39 571 5 0 0 0 - - -, f 5;
#N canvas 473 0 958 1001 oscReceive 1;
#X obj 55 184 netreceive -u -b;
#X msg 78 143 listen 0;
#X text 152 143 stop listening;
#X text 64 58 packets from network;
#X text 173 177 UDP packets \, binary output, f 13;
#X obj 45 314 print;
#X obj 45 272 oscparse;
#X text 150 114 listen on port 8000;
#X obj 177 269 oscparse;
#X obj 177 293 list trim;
#X floatatom 74 461 5 0 0 0 - - -, f 5;
#X text 241 267 Parse the OSC message;
#X obj 177 319 route unity;
#X msg 66 115 listen 8000;
#X obj 66 84 loadbang;
#X floatatom 178 463 5 0 0 0 - - -, f 5;
#X floatatom 273 463 5 0 0 0 - - -, f 5;
#X floatatom 371 463 5 0 0 0 - - -, f 5;
#X obj 73 438 route finn;
#X obj 177 440 route frog;
#X obj 272 440 route mod;
#X obj 370 440 route hunter;
#X obj 74 491 s oscfinn;
#X obj 178 490 s oscfrog;
#X obj 273 490 s oscmod;
#X obj 371 490 s oschunter;
#X floatatom 470 463 5 0 0 0 - - -, f 5;
#X obj 469 440 route jump;
#X obj 470 490 s oscjump;
#X floatatom 560 463 5 0 0 0 - - -, f 5;
#X obj 559 440 route fruit;
#X obj 560 490 s oscfruit;
#X floatatom 651 463 5 0 0 0 - - -, f 5;
#X obj 650 440 route death;
#X obj 650 490 s oscdeath;
#X floatatom 741 463 5 0 0 0 - - -, f 5;
#X obj 740 440 route stop;
#X obj 740 490 s oscstop;
#X floatatom 821 463 5 0 0 0 - - -, f 5;
#X obj 820 440 route win;
#X obj 820 490 s oscwin;
#X floatatom 891 463 5 0 0 0 - - -, f 5;
#X obj 890 440 route lose;
#X obj 890 490 s osclose;
#X connect 0 0 6 0;
#X connect 0 0 8 0;
#X connect 1 0 0 0;
#X connect 6 0 5 0;
#X connect 8 0 9 0;
#X connect 9 0 12 0;
#X connect 10 0 22 0;
#X connect 12 0 18 0;
#X connect 12 0 19 0;
#X connect 12 0 20 0;
#X connect 12 0 21 0;
#X connect 12 0 27 0;
#X connect 12 0 30 0;
#X connect 12 0 33 0;
#X connect 12 0 36 0;
#X connect 12 0 39 0;
#X connect 12 0 42 0;
#X connect 13 0 0 0;
#X connect 14 0 13 0;
#X connect 15 0 23 0;
#X connect 16 0 24 0;
#X connect 17 0 25 0;
#X connect 18 0 10 0;
#X connect 19 0 15 0;
#X connect 20 0 16 0;
#X connect 21 0 17 0;
#X connect 26 0 28 0;
#X connect 27 0 26 0;
#X connect 29 0 31 0;
#X connect 30 0 29 0;
#X connect 32 0 34 0;
#X connect 33 0 32 0;
#X connect 35 0 37 0;
#X connect 36 0 35 0;
#X connect 38 0 40 0;
#X connect 39 0 38 0;
#X connect 41 0 43 0;
#X connect 42 0 41 0;
#X restore 30 160 pd oscReceive;
#X obj 40 655 oscformat PD message;
#X msg 72 616 set PD message;
#N canvas -32000 -32000 144 0 oscSend 1;
#X msg 158 207 disconnect;
#X obj 61 253 netsend -u -b;
#X obj 59 55 list prepend send;
#X obj 59 80 list trim;
#X msg 150 175 connect 127.0.0.1 8001;
#X obj 59 29 r oscOut;
#X text 301 163 send to port 8001;
#X msg 147 148 connect localhost 8001;
#X obj 147 108 loadbang;
#X connect 0 0 1 0;
#X connect 2 0 3 0;
#X connect 3 0 1 0;
#X connect 4 0 1 0;
#X connect 5 0 2 0;
#X connect 7 0 1 0;
#X connect 8 0 7 0;
#X restore 30 136 pd oscSend;
#X obj 40 690 s oscOut;
#X obj 360 30 r oscmod;
#X obj 430 30 r oscfinn;
#X obj 510 30 r oscfrog;
#X obj 590 30 r oschunter;
#X obj 1260 140 r oscfruit;
#X obj 1420 140 r oscjump;
#X obj 1680 160 r oscdeath;
#N canvas 0 0 450 300 death_sfx 0;
#X obj 233 294 noise~;
#X obj 233 379 *~;
#X obj 302 292 vline~;
#X obj 104 65 bng 15 250 50 0 empty empty empty 17 7 0 10 #fcfcfc #000000
#000000;
#X floatatom 104 181 5 0 0 0 - - -, f 5;
#X floatatom 160 179 5 0 0 0 - - -, f 5;
#X obj 160 80 delay 125 1 msec;
#X obj 160 110 bng 15 250 50 0 empty empty empty 17 7 0 10 #fcfcfc
#000000 #000000;
#X obj 104 360 /~;
#X obj 104 242 + 100;
#X msg 302 241 0.25 1 \, 0 250 500;
#X obj 104 294 osc~;
#X obj 160 294 phasor~;
#X msg 104 132 50;
#X msg 160 130 100;
#X text 100 0 damage sound;
#X obj 100 30 inlet;
#X obj 230 430 outlet~;
#X connect 0 0 1 0;
#X connect 1 0 17 0;
#X connect 2 0 1 1;
#X connect 3 0 6 0;
#X connect 3 0 10 0;
#X connect 3 0 13 0;
#X connect 4 0 9 0;
#X connect 4 0 12 0;
#X connect 5 0 9 0;
#X connect 5 0 12 0;
#X connect 6 0 7 0;
#X connect 7 0 14 0;
#X connect 8 0 1 0;
#X connect 9 0 11 0;
#X connect 10 0 2 0;
#X connect 11 0 8 0;
#X connect 12 0 8 1;
#X connect 13 0 4 0;
#X connect 14 0 5 0;
#X connect 16 0 3 0;
#X restore 1680 200 pd death_sfx;
#X obj 1680 240 dac~;
#X obj 680 30 r oscstop;
#N canvas 0 0 1904 1001 win 1;
#X obj 820 420 bng 15 250 50 0 empty empty empty 17 7 0 10 #fcfcfc
#000000 #000000;
#X obj 820 644 osc~;
#X obj 820 691 *~;
#X obj 820 598 vline~;
#X text 820 393 C;
#X text 920 394 D;
#X text 1123 395 F;
#X text 1222 395 G;
#X text 1029 395 E;
#X obj 820 497 +;
#X msg 820 450 260;
#X msg 867 450 1;
#X obj 920 420 bng 15 250 50 0 empty empty empty 17 7 0 10 #fcfcfc
#000000 #000000;
#X obj 920 497 +;
#X obj 1029 418 bng 15 250 50 0 empty empty empty 17 7 0 10 #fcfcfc
#000000 #000000;
#X obj 1029 495 +;
#X obj 1123 417 bng 15 250 50 0 empty empty empty 17 7 0 10 #fcfcfc
#000000 #000000;
#X obj 1123 494 +;
#X obj 1221 417 bng 15 250 50 0 empty empty empty 17 7 0 10 #fcfcfc
#000000 #000000;
#X obj 1221 494 +;
#X floatatom 1221 537 5 0 0 0 - - -, f 5;
#X floatatom 820 537 5 0 0 0 - - -, f 5;
#X floatatom 920 535 5 0 0 0 - - -, f 5;
#X floatatom 1029 534 5 0 0 0 - - -, f 5;
#X floatatom 1123 534 5 0 0 0 - - -, f 5;
#X msg 920 450 293;
#X msg 967 450 1;
#X msg 1029 448 329;
#X msg 1077 448 1;
#X msg 1123 447 348;
#X msg 1170 447 1;
#X msg 1221 447 391;
#X msg 1269 447 1;
#X obj 1000 214 bng 15 250 50 0 empty empty empty 17 7 0 10 #fcfcfc
#000000 #000000;
#X obj 1000 297 random 5;
#X obj 1000 343 select 0 1 2 3;
#X msg 1030 233 stop;
#X obj 1000 260 metro 400;
#X obj 960 160 inlet;
#X floatatom 870 670 5 0 0.1 0 - - -, f 5;
#X obj 820 730 outlet~;
#X connect 0 0 10 0;
#X connect 1 0 2 0;
#X connect 2 0 40 0;
#X connect 3 0 1 0;
#X connect 9 0 21 0;
#X connect 10 0 9 0;
#X connect 11 0 9 1;
#X connect 12 0 25 0;
#X connect 13 0 22 0;
#X connect 14 0 27 0;
#X connect 15 0 23 0;
#X connect 16 0 29 0;
#X connect 17 0 24 0;
#X connect 18 0 31 0;
#X connect 19 0 20 0;
#X connect 20 0 3 0;
#X connect 21 0 3 0;
#X connect 22 0 3 0;
#X connect 23 0 3 0;
#X connect 24 0 3 0;
#X connect 25 0 13 0;
#X connect 26 0 13 1;
#X connect 27 0 15 0;
#X connect 28 0 15 1;
#X connect 29 0 17 0;
#X connect 30 0 17 1;
#X connect 31 0 19 0;
#X connect 32 0 19 1;
#X connect 33 0 37 0;
#X connect 34 0 35 0;
#X connect 35 0 0 0;
#X connect 35 1 12 0;
#X connect 35 2 14 0;
#X connect 35 3 16 0;
#X connect 35 4 18 0;
#X connect 36 0 37 0;
#X connect 37 0 34 0;
#X connect 38 0 33 0;
#X connect 39 0 2 1;
#X restore 900 410 pd win;
#X obj 760 30 r oscwin;
#X obj 830 30 r osclose;
#N canvas -32000 -32000 144 0 lose 1;
#X floatatom 529 -364 5 0 0 0 - - -, f 5;
#X obj 438 -161 *~;
#X obj 529 -758 bng 15 250 50 0 empty empty empty 17 7 0 10 #fcfcfc
#000000 #000000;
#X obj 571 -711 bng 15 250 50 0 empty empty empty 17 7 0 10 #fcfcfc
#000000 #000000;
#X msg 571 -684 stop;
#X obj 529 -438 f;
#X floatatom 547 -472 5 0 0 0 - - -, f 5;
#X obj 583 -435 f;
#X floatatom 601 -471 5 0 0 0 - - -, f 5;
#X obj 649 -435 f;
#X floatatom 667 -469 5 0 0 0 - - -, f 5;
#X obj 704 -436 f;
#X floatatom 722 -470 5 0 0 0 - - -, f 5;
#X obj 722 -547 loadbang;
#X obj 529 -310 mtof;
#X obj 610 -310 mtof;
#X floatatom 610 -364 5 0 0 0 - - -, f 5;
#X obj 684 -180 vline~;
#X obj 438 -310 mtof;
#X obj 438 -203 -~;
#X obj 438 -242 +~;
#X obj 529 -601 random 4;
#X obj 529 -555 select 0 1 2 3;
#X obj 438 -346 +;
#X obj 456 -629 random 3;
#X obj 529 -648 metro 1000;
#X obj 571 -743 delay 0 1 msec;
#X obj 704 -383 - 12;
#X msg 684 -218 0.1 50 \, 0 1000 100;
#X obj 529 -860 bng 15 250 50 0 empty empty empty 17 7 0 10 #fcfcfc
#000000 #000000;
#X msg 610 -900 stop;
#X obj 529 -822 metro 400;
#X msg 547 -508 28;
#X obj 438 -276 osc~;
#X obj 610 -277 osc~;
#X msg 667 -505 60;
#X obj 456 -582 * 4;
#X msg 601 -505 25;
#X msg 722 -506 56;
#X obj 529 -275 osc~;
#X obj 530 -890 inlet;
#X obj 440 -110 outlet~;
#X connect 0 0 14 0;
#X connect 0 0 23 0;
#X connect 1 0 41 0;
#X connect 2 0 25 0;
#X connect 2 0 26 0;
#X connect 3 0 4 0;
#X connect 4 0 25 0;
#X connect 5 0 0 0;
#X connect 5 0 27 0;
#X connect 6 0 5 1;
#X connect 7 0 0 0;
#X connect 7 0 27 0;
#X connect 8 0 7 1;
#X connect 9 0 0 0;
#X connect 9 0 27 0;
#X connect 10 0 9 1;
#X connect 11 0 0 0;
#X connect 11 0 27 0;
#X connect 12 0 11 1;
#X connect 13 0 38 0;
#X connect 13 0 35 0;
#X connect 13 0 37 0;
#X connect 13 0 32 0;
#X connect 14 0 39 0;
#X connect 15 0 34 0;
#X connect 16 0 15 0;
#X connect 17 0 1 1;
#X connect 18 0 33 0;
#X connect 19 0 1 0;
#X connect 20 0 19 0;
#X connect 21 0 22 0;
#X connect 22 0 5 0;
#X connect 22 1 7 0;
#X connect 22 2 9 0;
#X connect 22 3 11 0;
#X connect 23 0 18 0;
#X connect 24 0 36 0;
#X connect 25 0 21 0;
#X connect 25 0 28 0;
#X connect 25 0 24 0;
#X connect 26 0 3 0;
#X connect 27 0 16 0;
#X connect 28 0 17 0;
#X connect 29 0 31 0;
#X connect 30 0 31 0;
#X connect 31 0 2 0;
#X connect 31 0 26 0;
#X connect 32 0 6 0;
#X connect 33 0 20 0;
#X connect 34 0 19 1;
#X connect 35 0 10 0;
#X connect 36 0 23 1;
#X connect 37 0 8 0;
#X connect 38 0 12 0;
#X connect 39 0 20 1;
#X connect 40 0 29 0;
#X restore 1010 410 pd lose;
#X msg 570 80 4;
#X msg 640 80 5;
#X obj 202 130 select 0 1 2 3 4 5;
#X obj 870 190 bng 15 250 50 0 empty empty empty 17 7 0 10 #fcfcfc
#000000 #000000;
#X msg 900 210 stop;
#X obj 979 185 bng 15 250 50 0 empty empty empty 17 7 0 10 #fcfcfc
#000000 #000000;
#X msg 1010 200 stop;
#N canvas 0 0 3240 1996 fade 0;
#X obj 206 297 *~;
#X obj 206 365 dac~;
#X obj 250 278 vline~;
#X msg 270 223 0 1000;
#X msg 250 250 0.5 1000 100;
#X obj 250 126 inlet;
#X obj 312 125 inlet;
#X obj 189 130 inlet~;
#X connect 0 0 1 0;
#X connect 0 0 1 1;
#X connect 2 0 0 1;
#X connect 3 0 2 0;
#X connect 4 0 2 0;
#X connect 5 0 4 0;
#X connect 6 0 3 0;
#X connect 7 0 0 0;
#X restore 900 550 pd fade;
#N canvas 0 0 3240 1996 fade 0;
#X obj 206 297 *~;
#X obj 206 365 dac~;
#X obj 250 278 vline~;
#X msg 270 223 0 1000;
#X msg 250 250 0.5 1000 100;
#X obj 250 126 inlet;
#X obj 312 125 inlet;
#X obj 189 130 inlet~;
#X connect 0 0 1 0;
#X connect 0 0 1 1;
#X connect 2 0 0 1;
#X connect 3 0 2 0;
#X connect 4 0 2 0;
#X connect 5 0 4 0;
#X connect 6 0 3 0;
#X connect 7 0 0 0;
#X restore 1010 550 pd fade;
#X connect 0 0 1 0;
#X connect 2 0 27 0;
#X connect 3 0 26 0;
#X connect 4 0 30 0;
#X connect 5 0 30 0;
#X connect 6 0 30 0;
#X connect 7 0 30 0;
#X connect 8 0 2 0;
#X connect 8 0 12 0;
#X connect 8 0 18 1;
#X connect 9 0 3 0;
#X connect 9 0 13 0;
#X connect 9 0 19 1;
#X connect 10 0 14 0;
#X connect 10 0 17 0;
#X connect 10 0 20 1;
#X connect 11 0 15 0;
#X connect 11 0 21 1;
#X connect 11 0 22 0;
#X connect 12 0 3 0;
#X connect 12 0 17 0;
#X connect 12 0 19 2;
#X connect 12 0 20 2;
#X connect 12 0 21 2;
#X connect 12 0 22 0;
#X connect 12 0 62 2;
#X connect 12 0 63 2;
#X connect 13 0 2 0;
#X connect 13 0 17 0;
#X connect 13 0 18 2;
#X connect 13 0 20 2;
#X connect 13 0 21 2;
#X connect 13 0 22 0;
#X connect 13 0 62 2;
#X connect 13 0 63 2;
#X connect 14 0 2 0;
#X connect 14 0 3 0;
#X connect 14 0 18 2;
#X connect 14 0 19 2;
#X connect 14 0 21 2;
#X connect 14 0 22 0;
#X connect 14 0 62 2;
#X connect 14 0 63 2;
#X connect 15 0 3 0;
#X connect 15 0 2 0;
#X connect 15 0 17 0;
#X connect 15 0 18 2;
#X connect 15 0 19 2;
#X connect 15 0 20 2;
#X connect 15 0 62 2;
#X connect 15 0 63 2;
#X connect 17 0 25 0;
#X connect 22 0 24 0;
#X connect 23 0 16 0;
#X connect 23 0 16 1;
#X connect 24 0 21 0;
#X connect 25 0 20 0;
#X connect 26 0 19 0;
#X connect 27 0 18 0;
#X connect 29 0 15 0;
#X connect 29 0 14 0;
#X connect 29 0 13 0;
#X connect 29 0 12 0;
#X connect 29 0 59 0;
#X connect 29 0 61 0;
#X connect 30 0 57 0;
#X connect 31 0 32 0;
#X connect 31 0 32 1;
#X connect 35 0 37 0;
#X connect 37 0 40 0;
#X connect 38 0 37 0;
#X connect 41 0 4 0;
#X connect 42 0 5 0;
#X connect 43 0 6 0;
#X connect 44 0 7 0;
#X connect 45 0 23 0;
#X connect 46 0 31 0;
#X connect 47 0 48 0;
#X connect 48 0 49 0;
#X connect 48 0 49 1;
#X connect 50 0 29 0;
#X connect 51 0 62 0;
#X connect 52 0 55 0;
#X connect 53 0 56 0;
#X connect 54 0 63 0;
#X connect 55 0 30 0;
#X connect 56 0 30 0;
#X connect 57 0 11 0;
#X connect 57 1 10 0;
#X connect 57 2 9 0;
#X connect 57 3 8 0;
#X connect 57 4 58 0;
#X connect 57 5 60 0;
#X connect 58 0 59 0;
#X connect 58 0 51 0;
#X connect 58 0 62 1;
#X connect 59 0 18 2;
#X connect 59 0 19 2;
#X connect 59 0 20 2;
#X connect 59 0 21 2;
#X connect 59 0 63 2;
#X connect 60 0 61 0;
#X connect 60 0 54 0;
#X connect 60 0 63 1;
#X connect 61 0 62 2;
#X connect 61 0 18 2;
#X connect 61 0 19 2;
#X connect 61 0 20 2;
#X connect 61 0 21 2;
